<svg xmlns="http://www.w3.org/2000/svg" width="160" height="128" viewBox="-40 -32 80 64">
  <defs>
    <linearGradient id="shell" x1="0" y1="0" x2="1" y2="1"><stop stop-color="#506968"/><stop offset=".45" stop-color="#283e43"/><stop offset="1" stop-color="#142b33"/></linearGradient>
  </defs>
  <path d="M-29-15 Q-20-24-8-20 L7-19 Q20-15 26-2 L19 15 L4 21 L-10 18 L-27 15 L-34 2 Z" fill="#152e35" stroke="#071c25" stroke-width="3"/>
  <path d="M-31-12 L-39-8 L-33 0 L-40 9 L-28 14 L-19 9 L-19-8 Z" fill="#687a68" stroke="#253a3b" stroke-width="2"/>
  <path d="M-29-14 Q-10-27 10-17 Q23-12 24 0 Q20 17 7 19 Q-9 24-26 10 Q-32 0-29-14 Z" fill="url(#shell)" stroke="#7c9a83" stroke-width="2"/>
  <path d="M-23-14 Q-9-20 4-15 L8-8 Q-1-5-17-7 Z" fill="#8ba187" opacity=".8"/>
  <path d="M-25 10 Q-9 17 7 11 L16 14 Q-6 25-26 11 Z" fill="#647970"/>
  <path d="M-22-4 L-11-15 L-4-10 L3-19 L8-8 L-3-3 Z" fill="#4d5565" stroke="#9388a0" stroke-width="1.5"/>
  <path d="M-8-11 L-2-18 L3-11 M-22-6 L-15-13" stroke="#b5a7ad" stroke-width="1.5" opacity=".8"/>
  <path d="M9-13 L26-7 L34 0 L25 6 L10 14 L16 3 Z" fill="#172d35" stroke="#071b24" stroke-width="2.5"/>
  <path d="M13-9 L28-3 L31 0 L26 3 L13 9 L20 0 Z" fill="#556d67"/>
  <path d="M25-4 L35-8 L31-1 L38 0 L31 2 L35 8 L25 4" fill="#c1b59b" stroke="#4b625d" stroke-width="1"/>
  <path d="M-15-9 Q-5-12 3-5 Q8 4 0 10 Q-12 12-18 5 Z" fill="#152b33" stroke="#657575" stroke-width="2"/>
  <path d="M-13-6 Q-7-11-1-6" fill="none" stroke="#ff9d67" stroke-width="1.5" opacity=".75"/>
  <path d="M8-10 L18-8 M8 10 L19 8" stroke="#a4ac8b" stroke-width="2"/>
</svg>
